<?xml version="1.0" encoding="utf-8" standalone="no"?>
<!DOCTYPE svg PUBLIC "-//W3C//DTD SVG 1.1//EN"
  "http://www.w3.org/Graphics/SVG/1.1/DTD/svg11.dtd">
<svg xmlns:xlink="http://www.w3.org/1999/xlink" width="571.907344pt" height="492.673438pt" viewBox="0 0 571.907344 492.673438" xmlns="http://www.w3.org/2000/svg" version="1.1">
 <metadata>
  <rdf:RDF xmlns:dc="http://purl.org/dc/elements/1.1/" xmlns:cc="http://creativecommons.org/ns#" xmlns:rdf="http://www.w3.org/1999/02/22-rdf-syntax-ns#">
   <cc:Work>
    <dc:type rdf:resource="http://purl.org/dc/dcmitype/StillImage"/>
    <dc:date>2025-10-22T07:47:49.412453</dc:date>
    <dc:format>image/svg+xml</dc:format>
    <dc:creator>
     <cc:Agent>
      <dc:title>Matplotlib v3.6.3, https://matplotlib.org/</dc:title>
     </cc:Agent>
    </dc:creator>
   </cc:Work>
  </rdf:RDF>
 </metadata>
 <defs>
  <style type="text/css">*{stroke-linejoin: round; stroke-linecap: butt}</style>
 </defs>
 <g id="figure_1">
  <g id="patch_1">
   <path d="M 0 492.673438 
L 571.907344 492.673438 
L 571.907344 0 
L 0 0 
z
" style="fill: #ffffff"/>
  </g>
  <g id="axes_1">
   <g id="patch_2">
    <path d="M 498.627656 255.55375 
C 498.627656 227.351889 493.072505 199.424256 482.28012 173.369134 
C 471.487735 147.314013 455.668002 123.638108 435.726275 103.696382 
C 415.784548 83.754655 392.108644 67.934921 366.053522 57.142536 
C 339.9984 46.350152 312.070767 40.795 283.868906 40.795 
C 255.667046 40.795 227.739413 46.350152 201.684291 57.142536 
C 175.629169 67.934921 151.953265 83.754655 132.011538 103.696382 
C 112.069811 123.638108 96.250078 147.314013 85.457693 173.369134 
C 74.665308 199.424256 69.110156 227.351889 69.110156 255.55375 
C 69.110156 283.755611 74.665308 311.683244 85.457693 337.738366 
C 96.250078 363.793487 112.069811 387.469392 132.011538 407.411118 
C 151.953265 427.352845 175.629169 443.172579 201.684291 453.964964 
C 227.739413 464.757348 255.667046 470.3125 283.868906 470.3125 
C 312.070767 470.3125 339.9984 464.757348 366.053522 453.964964 
C 392.108644 443.172579 415.784548 427.352845 435.726275 407.411118 
C 455.668002 387.469392 471.487735 363.793487 482.28012 337.738366 
C 493.072505 311.683244 498.627656 283.755611 498.627656 255.55375 
M 283.868906 255.55375 
C 283.868906 255.55375 283.868906 255.55375 283.868906 255.55375 
C 283.868906 255.55375 283.868906 255.55375 283.868906 255.55375 
C 283.868906 255.55375 283.868906 255.55375 283.868906 255.55375 
C 283.868906 255.55375 283.868906 255.55375 283.868906 255.55375 
C 283.868906 255.55375 283.868906 255.55375 283.868906 255.55375 
C 283.868906 255.55375 283.868906 255.55375 283.868906 255.55375 
C 283.868906 255.55375 283.868906 255.55375 283.868906 255.55375 
C 283.868906 255.55375 283.868906 255.55375 283.868906 255.55375 
C 283.868906 255.55375 283.868906 255.55375 283.868906 255.55375 
C 283.868906 255.55375 283.868906 255.55375 283.868906 255.55375 
C 283.868906 255.55375 283.868906 255.55375 283.868906 255.55375 
C 283.868906 255.55375 283.868906 255.55375 283.868906 255.55375 
C 283.868906 255.55375 283.868906 255.55375 283.868906 255.55375 
C 283.868906 255.55375 283.868906 255.55375 283.868906 255.55375 
C 283.868906 255.55375 283.868906 255.55375 283.868906 255.55375 
C 283.868906 255.55375 283.868906 255.55375 283.868906 255.55375 
M 498.627656 255.55375 
z
" style="fill: #eaeaf2"/>
   </g>
   <g id="matplotlib.axis_1">
    <g id="xtick_1">
     <g id="line2d_1">
      <path d="M 283.868906 255.55375 
L 498.627656 255.55375 
" clip-path="url(#p592f08936e)" style="fill: none; stroke: #ffffff; stroke-opacity: 0.7; stroke-width: 0.6; stroke-linecap: round"/>
     </g>
     <g id="text_1">
      <!-- Python &amp; Scientific Stack -->
      <g style="fill: #262626" transform="translate(453.547969 258.139688) scale(0.1 -0.1)">
       <defs>
        <path id="LiberationSans-50" d="M 3931 3078 
Q 3931 2453 3523 2084 
Q 3116 1716 2416 1716 
L 1122 1716 
L 1122 0 
L 525 0 
L 525 4403 
L 2378 4403 
Q 3119 4403 3525 4056 
Q 3931 3709 3931 3078 
z
M 3331 3072 
Q 3331 3925 2306 3925 
L 1122 3925 
L 1122 2188 
L 2331 2188 
Q 3331 2188 3331 3072 
z
" transform="scale(0.015625)"/>
        <path id="LiberationSans-79" d="M 597 -1328 
Q 366 -1328 209 -1294 
L 209 -872 
Q 328 -891 472 -891 
Q 997 -891 1303 -119 
L 1356 16 
L 16 3381 
L 616 3381 
L 1328 1513 
Q 1344 1469 1366 1408 
Q 1388 1347 1506 1000 
Q 1625 653 1634 613 
L 1853 1228 
L 2594 3381 
L 3188 3381 
L 1888 0 
Q 1678 -541 1497 -805 
Q 1316 -1069 1095 -1198 
Q 875 -1328 597 -1328 
z
" transform="scale(0.015625)"/>
        <path id="LiberationSans-74" d="M 1731 25 
Q 1453 -50 1163 -50 
Q 488 -50 488 716 
L 488 2972 
L 97 2972 
L 97 3381 
L 509 3381 
L 675 4138 
L 1050 4138 
L 1050 3381 
L 1675 3381 
L 1675 2972 
L 1050 2972 
L 1050 838 
Q 1050 594 1129 495 
Q 1209 397 1406 397 
Q 1519 397 1731 441 
L 1731 25 
z
" transform="scale(0.015625)"/>
        <path id="LiberationSans-68" d="M 991 2803 
Q 1172 3134 1426 3289 
Q 1681 3444 2072 3444 
Q 2622 3444 2883 3170 
Q 3144 2897 3144 2253 
L 3144 0 
L 2578 0 
L 2578 2144 
Q 2578 2500 2512 2673 
Q 2447 2847 2297 2928 
Q 2147 3009 1881 3009 
Q 1484 3009 1245 2734 
Q 1006 2459 1006 1994 
L 1006 0 
L 444 0 
L 444 4638 
L 1006 4638 
L 1006 3431 
Q 1006 3241 995 3037 
Q 984 2834 981 2803 
L 991 2803 
z
" transform="scale(0.015625)"/>
        <path id="LiberationSans-6f" d="M 3291 1694 
Q 3291 806 2900 371 
Q 2509 -63 1766 -63 
Q 1025 -63 647 389 
Q 269 841 269 1694 
Q 269 3444 1784 3444 
Q 2559 3444 2925 3017 
Q 3291 2591 3291 1694 
z
M 2700 1694 
Q 2700 2394 2492 2711 
Q 2284 3028 1794 3028 
Q 1300 3028 1079 2704 
Q 859 2381 859 1694 
Q 859 1025 1076 689 
Q 1294 353 1759 353 
Q 2266 353 2483 678 
Q 2700 1003 2700 1694 
z
" transform="scale(0.015625)"/>
        <path id="LiberationSans-6e" d="M 2578 0 
L 2578 2144 
Q 2578 2478 2512 2662 
Q 2447 2847 2303 2928 
Q 2159 3009 1881 3009 
Q 1475 3009 1240 2731 
Q 1006 2453 1006 1959 
L 1006 0 
L 444 0 
L 444 2659 
Q 444 3250 425 3381 
L 956 3381 
Q 959 3366 962 3297 
Q 966 3228 970 3139 
Q 975 3050 981 2803 
L 991 2803 
Q 1184 3153 1439 3298 
Q 1694 3444 2072 3444 
Q 2628 3444 2886 3167 
Q 3144 2891 3144 2253 
L 3144 0 
L 2578 0 
z
" transform="scale(0.015625)"/>
        <path id="LiberationSans-20" transform="scale(0.015625)"/>
        <path id="LiberationSans-26" d="M 3728 -38 
Q 3175 -38 2797 359 
Q 2563 156 2263 46 
Q 1963 -63 1634 -63 
Q 963 -63 594 260 
Q 225 584 225 1159 
Q 225 2028 1297 2500 
Q 1194 2694 1119 2959 
Q 1044 3225 1044 3444 
Q 1044 3913 1330 4170 
Q 1616 4428 2141 4428 
Q 2613 4428 2902 4190 
Q 3191 3953 3191 3541 
Q 3191 3172 2905 2884 
Q 2619 2597 1913 2316 
Q 2259 1675 2828 1028 
Q 3181 1547 3363 2309 
L 3816 2175 
Q 3619 1397 3153 709 
Q 3453 403 3803 403 
Q 4025 403 4169 453 
L 4169 31 
Q 3994 -38 3728 -38 
z
M 2716 3541 
Q 2716 3766 2559 3908 
Q 2403 4050 2134 4050 
Q 1834 4050 1678 3889 
Q 1522 3728 1522 3444 
Q 1522 3088 1725 2681 
Q 2134 2847 2326 2969 
Q 2519 3091 2617 3231 
Q 2716 3372 2716 3541 
z
M 2484 678 
Q 1866 1409 1488 2106 
Q 750 1794 750 1166 
Q 750 788 992 567 
Q 1234 347 1653 347 
Q 1875 347 2097 433 
Q 2319 519 2484 678 
z
" transform="scale(0.015625)"/>
        <path id="LiberationSans-53" d="M 3975 1216 
Q 3975 606 3498 271 
Q 3022 -63 2156 -63 
Q 547 -63 291 1056 
L 869 1172 
Q 969 775 1294 589 
Q 1619 403 2178 403 
Q 2756 403 3070 601 
Q 3384 800 3384 1184 
Q 3384 1400 3286 1534 
Q 3188 1669 3009 1756 
Q 2831 1844 2584 1903 
Q 2338 1963 2038 2031 
Q 1516 2147 1245 2262 
Q 975 2378 819 2520 
Q 663 2663 580 2853 
Q 497 3044 497 3291 
Q 497 3856 930 4162 
Q 1363 4469 2169 4469 
Q 2919 4469 3316 4239 
Q 3713 4009 3872 3456 
L 3284 3353 
Q 3188 3703 2916 3861 
Q 2644 4019 2163 4019 
Q 1634 4019 1356 3844 
Q 1078 3669 1078 3322 
Q 1078 3119 1186 2986 
Q 1294 2853 1497 2761 
Q 1700 2669 2306 2534 
Q 2509 2488 2711 2439 
Q 2913 2391 3097 2323 
Q 3281 2256 3442 2165 
Q 3603 2075 3722 1944 
Q 3841 1813 3908 1634 
Q 3975 1456 3975 1216 
z
" transform="scale(0.015625)"/>
        <path id="LiberationSans-63" d="M 859 1706 
Q 859 1031 1071 706 
Q 1284 381 1713 381 
Q 2013 381 2214 543 
Q 2416 706 2463 1044 
L 3031 1006 
Q 2966 519 2616 228 
Q 2266 -63 1728 -63 
Q 1019 -63 645 385 
Q 272 834 272 1694 
Q 272 2547 647 2995 
Q 1022 3444 1722 3444 
Q 2241 3444 2583 3175 
Q 2925 2906 3013 2434 
L 2434 2391 
Q 2391 2672 2212 2837 
Q 2034 3003 1706 3003 
Q 1259 3003 1059 2706 
Q 859 2409 859 1706 
z
" transform="scale(0.015625)"/>
        <path id="LiberationSans-69" d="M 428 4100 
L 428 4638 
L 991 4638 
L 991 4100 
L 428 4100 
z
M 428 0 
L 428 3381 
L 991 3381 
L 991 0 
L 428 0 
z
" transform="scale(0.015625)"/>
        <path id="LiberationSans-65" d="M 863 1572 
Q 863 991 1103 675 
Q 1344 359 1806 359 
Q 2172 359 2392 506 
Q 2613 653 2691 878 
L 3184 738 
Q 2881 -63 1806 -63 
Q 1056 -63 664 384 
Q 272 831 272 1713 
Q 272 2550 664 2997 
Q 1056 3444 1784 3444 
Q 3275 3444 3275 1647 
L 3275 1572 
L 863 1572 
z
M 2694 2003 
Q 2647 2538 2422 2783 
Q 2197 3028 1775 3028 
Q 1366 3028 1127 2754 
Q 888 2481 869 2003 
L 2694 2003 
z
" transform="scale(0.015625)"/>
        <path id="LiberationSans-66" d="M 1128 2972 
L 1128 0 
L 566 0 
L 566 2972 
L 91 2972 
L 91 3381 
L 566 3381 
L 566 3763 
Q 566 4225 769 4428 
Q 972 4631 1391 4631 
Q 1625 4631 1788 4594 
L 1788 4166 
Q 1647 4191 1538 4191 
Q 1322 4191 1225 4081 
Q 1128 3972 1128 3684 
L 1128 3381 
L 1788 3381 
L 1788 2972 
L 1128 2972 
z
" transform="scale(0.015625)"/>
        <path id="LiberationSans-61" d="M 1294 -63 
Q 784 -63 528 206 
Q 272 475 272 944 
Q 272 1469 617 1750 
Q 963 2031 1731 2050 
L 2491 2063 
L 2491 2247 
Q 2491 2659 2316 2837 
Q 2141 3016 1766 3016 
Q 1388 3016 1216 2887 
Q 1044 2759 1009 2478 
L 422 2531 
Q 566 3444 1778 3444 
Q 2416 3444 2737 3151 
Q 3059 2859 3059 2306 
L 3059 850 
Q 3059 600 3125 473 
Q 3191 347 3375 347 
Q 3456 347 3559 369 
L 3559 19 
Q 3347 -31 3125 -31 
Q 2813 -31 2670 133 
Q 2528 297 2509 647 
L 2491 647 
Q 2275 259 1989 98 
Q 1703 -63 1294 -63 
z
M 1422 359 
Q 1731 359 1972 500 
Q 2213 641 2352 886 
Q 2491 1131 2491 1391 
L 2491 1669 
L 1875 1656 
Q 1478 1650 1273 1575 
Q 1069 1500 959 1344 
Q 850 1188 850 934 
Q 850 659 998 509 
Q 1147 359 1422 359 
z
" transform="scale(0.015625)"/>
        <path id="LiberationSans-6b" d="M 2550 0 
L 1406 1544 
L 994 1203 
L 994 0 
L 431 0 
L 431 4638 
L 994 4638 
L 994 1741 
L 2478 3381 
L 3138 3381 
L 1766 1928 
L 3209 0 
L 2550 0 
z
" transform="scale(0.015625)"/>
       </defs>
       <use xlink:href="#LiberationSans-50"/>
       <use xlink:href="#LiberationSans-79" x="66.699219"/>
       <use xlink:href="#LiberationSans-74" x="116.699219"/>
       <use xlink:href="#LiberationSans-68" x="144.482422"/>
       <use xlink:href="#LiberationSans-6f" x="200.097656"/>
       <use xlink:href="#LiberationSans-6e" x="255.712891"/>
       <use xlink:href="#LiberationSans-20" x="311.328125"/>
       <use xlink:href="#LiberationSans-26" x="339.111328"/>
       <use xlink:href="#LiberationSans-20" x="405.810547"/>
       <use xlink:href="#LiberationSans-53" x="433.59375"/>
       <use xlink:href="#LiberationSans-63" x="500.292969"/>
       <use xlink:href="#LiberationSans-69" x="550.292969"/>
       <use xlink:href="#LiberationSans-65" x="572.509766"/>
       <use xlink:href="#LiberationSans-6e" x="628.125"/>
       <use xlink:href="#LiberationSans-74" x="683.740234"/>
       <use xlink:href="#LiberationSans-69" x="711.523438"/>
       <use xlink:href="#LiberationSans-66" x="733.740234"/>
       <use xlink:href="#LiberationSans-69" x="761.523438"/>
       <use xlink:href="#LiberationSans-63" x="783.740234"/>
       <use xlink:href="#LiberationSans-20" x="833.740234"/>
       <use xlink:href="#LiberationSans-53" x="861.523438"/>
       <use xlink:href="#LiberationSans-74" x="928.222656"/>
       <use xlink:href="#LiberationSans-61" x="956.005859"/>
       <use xlink:href="#LiberationSans-63" x="1011.621094"/>
       <use xlink:href="#LiberationSans-6b" x="1061.621094"/>
      </g>
     </g>
    </g>
    <g id="xtick_2">
     <g id="line2d_2">
      <path d="M 283.868906 255.55375 
L 435.726275 103.696382 
" clip-path="url(#p592f08936e)" style="fill: none; stroke: #ffffff; stroke-opacity: 0.7; stroke-width: 0.6; stroke-linecap: round"/>
     </g>
     <g id="text_2">
      <!-- Deep Learning (Drug Discovery/NLP) -->
      <g style="fill: #262626" transform="translate(360.343083 98.857698) scale(0.1 -0.1)">
       <defs>
        <path id="LiberationSans-44" d="M 4316 2247 
Q 4316 1566 4050 1055 
Q 3784 544 3296 272 
Q 2809 0 2172 0 
L 525 0 
L 525 4403 
L 1981 4403 
Q 3100 4403 3708 3842 
Q 4316 3281 4316 2247 
z
M 3716 2247 
Q 3716 3066 3267 3495 
Q 2819 3925 1969 3925 
L 1122 3925 
L 1122 478 
L 2103 478 
Q 2588 478 2955 690 
Q 3322 903 3519 1303 
Q 3716 1703 3716 2247 
z
" transform="scale(0.015625)"/>
        <path id="LiberationSans-70" d="M 3291 1706 
Q 3291 -63 2047 -63 
Q 1266 -63 997 525 
L 981 525 
Q 994 500 994 -6 
L 994 -1328 
L 431 -1328 
L 431 2691 
Q 431 3213 413 3381 
L 956 3381 
Q 959 3369 965 3292 
Q 972 3216 980 3056 
Q 988 2897 988 2838 
L 1000 2838 
Q 1150 3150 1397 3295 
Q 1644 3441 2047 3441 
Q 2672 3441 2981 3022 
Q 3291 2603 3291 1706 
z
M 2700 1694 
Q 2700 2400 2509 2703 
Q 2319 3006 1903 3006 
Q 1569 3006 1380 2865 
Q 1191 2725 1092 2426 
Q 994 2128 994 1650 
Q 994 984 1206 668 
Q 1419 353 1897 353 
Q 2316 353 2508 661 
Q 2700 969 2700 1694 
z
" transform="scale(0.015625)"/>
        <path id="LiberationSans-4c" d="M 525 0 
L 525 4403 
L 1122 4403 
L 1122 488 
L 3347 488 
L 3347 0 
L 525 0 
z
" transform="scale(0.015625)"/>
        <path id="LiberationSans-72" d="M 444 0 
L 444 2594 
Q 444 2950 425 3381 
L 956 3381 
Q 981 2806 981 2691 
L 994 2691 
Q 1128 3125 1303 3284 
Q 1478 3444 1797 3444 
Q 1909 3444 2025 3413 
L 2025 2897 
Q 1913 2928 1725 2928 
Q 1375 2928 1190 2626 
Q 1006 2325 1006 1763 
L 1006 0 
L 444 0 
z
" transform="scale(0.015625)"/>
        <path id="LiberationSans-67" d="M 1713 -1328 
Q 1159 -1328 831 -1111 
Q 503 -894 409 -494 
L 975 -413 
Q 1031 -647 1223 -773 
Q 1416 -900 1728 -900 
Q 2569 -900 2569 84 
L 2569 628 
L 2563 628 
Q 2403 303 2125 139 
Q 1847 -25 1475 -25 
Q 853 -25 561 387 
Q 269 800 269 1684 
Q 269 2581 583 3007 
Q 897 3434 1538 3434 
Q 1897 3434 2161 3270 
Q 2425 3106 2569 2803 
L 2575 2803 
Q 2575 2897 2587 3128 
Q 2600 3359 2613 3381 
L 3147 3381 
Q 3128 3213 3128 2681 
L 3128 97 
Q 3128 -1328 1713 -1328 
z
M 2569 1691 
Q 2569 2103 2456 2401 
Q 2344 2700 2139 2858 
Q 1934 3016 1675 3016 
Q 1244 3016 1047 2703 
Q 850 2391 850 1691 
Q 850 997 1034 694 
Q 1219 391 1666 391 
Q 1931 391 2137 547 
Q 2344 703 2456 995 
Q 2569 1288 2569 1691 
z
" transform="scale(0.015625)"/>
        <path id="LiberationSans-28" d="M 397 1663 
Q 397 2566 680 3284 
Q 963 4003 1550 4638 
L 2094 4638 
Q 1509 3988 1236 3256 
Q 963 2525 963 1656 
Q 963 791 1233 62 
Q 1503 -666 2094 -1325 
L 1550 -1325 
Q 959 -688 678 32 
Q 397 753 397 1650 
L 397 1663 
z
" transform="scale(0.015625)"/>
        <path id="LiberationSans-75" d="M 981 3381 
L 981 1238 
Q 981 903 1047 718 
Q 1113 534 1256 453 
Q 1400 372 1678 372 
Q 2084 372 2318 650 
Q 2553 928 2553 1422 
L 2553 3381 
L 3116 3381 
L 3116 722 
Q 3116 131 3134 0 
L 2603 0 
Q 2600 16 2597 84 
Q 2594 153 2589 242 
Q 2584 331 2578 578 
L 2569 578 
Q 2375 228 2120 82 
Q 1866 -63 1488 -63 
Q 931 -63 673 214 
Q 416 491 416 1128 
L 416 3381 
L 981 3381 
z
" transform="scale(0.015625)"/>
        <path id="LiberationSans-73" d="M 2969 934 
Q 2969 456 2608 196 
Q 2247 -63 1597 -63 
Q 966 -63 623 145 
Q 281 353 178 794 
L 675 891 
Q 747 619 972 492 
Q 1197 366 1597 366 
Q 2025 366 2223 497 
Q 2422 628 2422 891 
Q 2422 1091 2284 1216 
Q 2147 1341 1841 1422 
L 1438 1528 
Q 953 1653 748 1773 
Q 544 1894 428 2066 
Q 313 2238 313 2488 
Q 313 2950 642 3192 
Q 972 3434 1603 3434 
Q 2163 3434 2492 3237 
Q 2822 3041 2909 2606 
L 2403 2544 
Q 2356 2769 2151 2889 
Q 1947 3009 1603 3009 
Q 1222 3009 1040 2893 
Q 859 2778 859 2544 
Q 859 2400 934 2306 
Q 1009 2213 1156 2147 
Q 1303 2081 1775 1966 
Q 2222 1853 2419 1758 
Q 2616 1663 2730 1547 
Q 2844 1431 2906 1279 
Q 2969 1128 2969 934 
z
" transform="scale(0.015625)"/>
        <path id="LiberationSans-76" d="M 1916 0 
L 1250 0 
L 22 3381 
L 622 3381 
L 1366 1181 
Q 1406 1056 1581 441 
L 1691 806 
L 1813 1175 
L 2581 3381 
L 3178 3381 
L 1916 0 
z
" transform="scale(0.015625)"/>
        <path id="LiberationSans-2f" d="M 0 -63 
L 1284 4638 
L 1778 4638 
L 506 -63 
L 0 -63 
z
" transform="scale(0.015625)"/>
        <path id="LiberationSans-4e" d="M 3381 0 
L 1025 3750 
L 1041 3447 
L 1056 2925 
L 1056 0 
L 525 0 
L 525 4403 
L 1219 4403 
L 3600 628 
Q 3563 1241 3563 1516 
L 3563 4403 
L 4100 4403 
L 4100 0 
L 3381 0 
z
" transform="scale(0.015625)"/>
        <path id="LiberationSans-29" d="M 1734 1650 
Q 1734 747 1451 28 
Q 1169 -691 581 -1325 
L 38 -1325 
Q 625 -669 897 57 
Q 1169 784 1169 1656 
Q 1169 2528 895 3256 
Q 622 3984 38 4638 
L 581 4638 
Q 1172 4000 1453 3279 
Q 1734 2559 1734 1663 
L 1734 1650 
z
" transform="scale(0.015625)"/>
       </defs>
       <use xlink:href="#LiberationSans-44"/>
       <use xlink:href="#LiberationSans-65" x="72.216797"/>
       <use xlink:href="#LiberationSans-65" x="127.832031"/>
       <use xlink:href="#LiberationSans-70" x="183.447266"/>
       <use xlink:href="#LiberationSans-20" x="239.0625"/>
       <use xlink:href="#LiberationSans-4c" x="266.845703"/>
       <use xlink:href="#LiberationSans-65" x="322.460938"/>
       <use xlink:href="#LiberationSans-61" x="378.076172"/>
       <use xlink:href="#LiberationSans-72" x="433.691406"/>
       <use xlink:href="#LiberationSans-6e" x="466.992188"/>
       <use xlink:href="#LiberationSans-69" x="522.607422"/>
       <use xlink:href="#LiberationSans-6e" x="544.824219"/>
       <use xlink:href="#LiberationSans-67" x="600.439453"/>
       <use xlink:href="#LiberationSans-20" x="656.054688"/>
       <use xlink:href="#LiberationSans-28" x="683.837891"/>
       <use xlink:href="#LiberationSans-44" x="717.138672"/>
       <use xlink:href="#LiberationSans-72" x="789.355469"/>
       <use xlink:href="#LiberationSans-75" x="822.65625"/>
       <use xlink:href="#LiberationSans-67" x="878.271484"/>
       <use xlink:href="#LiberationSans-20" x="933.886719"/>
       <use xlink:href="#LiberationSans-44" x="961.669922"/>
       <use xlink:href="#LiberationSans-69" x="1033.886719"/>
       <use xlink:href="#LiberationSans-73" x="1056.103516"/>
       <use xlink:href="#LiberationSans-63" x="1106.103516"/>
       <use xlink:href="#LiberationSans-6f" x="1156.103516"/>
       <use xlink:href="#LiberationSans-76" x="1211.71875"/>
       <use xlink:href="#LiberationSans-65" x="1261.71875"/>
       <use xlink:href="#LiberationSans-72" x="1317.333984"/>
       <use xlink:href="#LiberationSans-79" x="1350.634766"/>
       <use xlink:href="#LiberationSans-2f" x="1400.634766"/>
       <use xlink:href="#LiberationSans-4e" x="1428.417969"/>
       <use xlink:href="#LiberationSans-4c" x="1500.634766"/>
       <use xlink:href="#LiberationSans-50" x="1556.25"/>
       <use xlink:href="#LiberationSans-29" x="1622.949219"/>
      </g>
     </g>
    </g>
    <g id="xtick_3">
     <g id="line2d_3">
      <path d="M 283.868906 255.55375 
L 283.868906 40.795 
" clip-path="url(#p592f08936e)" style="fill: none; stroke: #ffffff; stroke-opacity: 0.7; stroke-width: 0.6; stroke-linecap: round"/>
     </g>
     <g id="text_3">
      <!-- Computational Biology -->
      <g style="fill: #262626" transform="translate(233.842344 32.880938) scale(0.1 -0.1)">
       <defs>
        <path id="LiberationSans-43" d="M 2475 3981 
Q 1744 3981 1337 3511 
Q 931 3041 931 2222 
Q 931 1413 1354 920 
Q 1778 428 2500 428 
Q 3425 428 3891 1344 
L 4378 1100 
Q 4106 531 3614 234 
Q 3122 -63 2472 -63 
Q 1806 -63 1320 214 
Q 834 491 579 1005 
Q 325 1519 325 2222 
Q 325 3275 894 3872 
Q 1463 4469 2469 4469 
Q 3172 4469 3644 4194 
Q 4116 3919 4338 3378 
L 3772 3191 
Q 3619 3575 3280 3778 
Q 2941 3981 2475 3981 
z
" transform="scale(0.015625)"/>
        <path id="LiberationSans-6d" d="M 2400 0 
L 2400 2144 
Q 2400 2634 2265 2821 
Q 2131 3009 1781 3009 
Q 1422 3009 1212 2734 
Q 1003 2459 1003 1959 
L 1003 0 
L 444 0 
L 444 2659 
Q 444 3250 425 3381 
L 956 3381 
Q 959 3366 962 3297 
Q 966 3228 970 3139 
Q 975 3050 981 2803 
L 991 2803 
Q 1172 3163 1406 3303 
Q 1641 3444 1978 3444 
Q 2363 3444 2586 3291 
Q 2809 3138 2897 2803 
L 2906 2803 
Q 3081 3144 3329 3294 
Q 3578 3444 3931 3444 
Q 4444 3444 4676 3166 
Q 4909 2888 4909 2253 
L 4909 0 
L 4353 0 
L 4353 2144 
Q 4353 2634 4218 2821 
Q 4084 3009 3734 3009 
Q 3366 3009 3161 2736 
Q 2956 2463 2956 1959 
L 2956 0 
L 2400 0 
z
" transform="scale(0.015625)"/>
        <path id="LiberationSans-6c" d="M 431 0 
L 431 4638 
L 994 4638 
L 994 0 
L 431 0 
z
" transform="scale(0.015625)"/>
        <path id="LiberationSans-42" d="M 3931 1241 
Q 3931 653 3503 326 
Q 3075 0 2313 0 
L 525 0 
L 525 4403 
L 2125 4403 
Q 3675 4403 3675 3334 
Q 3675 2944 3456 2678 
Q 3238 2413 2838 2322 
Q 3363 2259 3647 1970 
Q 3931 1681 3931 1241 
z
M 3075 3263 
Q 3075 3619 2831 3772 
Q 2588 3925 2125 3925 
L 1122 3925 
L 1122 2531 
L 2125 2531 
Q 2603 2531 2839 2711 
Q 3075 2891 3075 3263 
z
M 3328 1288 
Q 3328 2066 2234 2066 
L 1122 2066 
L 1122 478 
L 2281 478 
Q 2828 478 3078 681 
Q 3328 884 3328 1288 
z
" transform="scale(0.015625)"/>
       </defs>
       <use xlink:href="#LiberationSans-43"/>
       <use xlink:href="#LiberationSans-6f" x="72.216797"/>
       <use xlink:href="#LiberationSans-6d" x="127.832031"/>
       <use xlink:href="#LiberationSans-70" x="211.132812"/>
       <use xlink:href="#LiberationSans-75" x="266.748047"/>
       <use xlink:href="#LiberationSans-74" x="322.363281"/>
       <use xlink:href="#LiberationSans-61" x="350.146484"/>
       <use xlink:href="#LiberationSans-74" x="405.761719"/>
       <use xlink:href="#LiberationSans-69" x="433.544922"/>
       <use xlink:href="#LiberationSans-6f" x="455.761719"/>
       <use xlink:href="#LiberationSans-6e" x="511.376953"/>
       <use xlink:href="#LiberationSans-61" x="566.992188"/>
       <use xlink:href="#LiberationSans-6c" x="622.607422"/>
       <use xlink:href="#LiberationSans-20" x="644.824219"/>
       <use xlink:href="#LiberationSans-42" x="672.607422"/>
       <use xlink:href="#LiberationSans-69" x="739.306641"/>
       <use xlink:href="#LiberationSans-6f" x="761.523438"/>
       <use xlink:href="#LiberationSans-6c" x="817.138672"/>
       <use xlink:href="#LiberationSans-6f" x="839.355469"/>
       <use xlink:href="#LiberationSans-67" x="894.970703"/>
       <use xlink:href="#LiberationSans-79" x="950.585938"/>
      </g>
     </g>
    </g>
    <g id="xtick_4">
     <g id="line2d_4">
      <path d="M 283.868906 255.55375 
L 132.011538 103.696382 
" clip-path="url(#p592f08936e)" style="fill: none; stroke: #ffffff; stroke-opacity: 0.7; stroke-width: 0.6; stroke-linecap: round"/>
     </g>
     <g id="text_4">
      <!-- Data Engineering / ML Ops -->
      <g style="fill: #262626" transform="translate(64.468167 98.857698) scale(0.1 -0.1)">
       <defs>
        <path id="LiberationSans-45" d="M 525 0 
L 525 4403 
L 3866 4403 
L 3866 3916 
L 1122 3916 
L 1122 2503 
L 3678 2503 
L 3678 2022 
L 1122 2022 
L 1122 488 
L 3994 488 
L 3994 0 
L 525 0 
z
" transform="scale(0.015625)"/>
        <path id="LiberationSans-4d" d="M 4269 0 
L 4269 2938 
Q 4269 3425 4297 3875 
Q 4144 3316 4022 3000 
L 2884 0 
L 2466 0 
L 1313 3000 
L 1138 3531 
L 1034 3875 
L 1044 3528 
L 1056 2938 
L 1056 0 
L 525 0 
L 525 4403 
L 1309 4403 
L 2481 1350 
Q 2544 1166 2601 955 
Q 2659 744 2678 650 
Q 2703 775 2783 1029 
Q 2863 1284 2891 1350 
L 4041 4403 
L 4806 4403 
L 4806 0 
L 4269 0 
z
" transform="scale(0.015625)"/>
        <path id="LiberationSans-4f" d="M 4672 2222 
Q 4672 1531 4408 1012 
Q 4144 494 3650 215 
Q 3156 -63 2484 -63 
Q 1806 -63 1314 212 
Q 822 488 562 1008 
Q 303 1528 303 2222 
Q 303 3278 881 3873 
Q 1459 4469 2491 4469 
Q 3163 4469 3656 4201 
Q 4150 3934 4411 3425 
Q 4672 2916 4672 2222 
z
M 4063 2222 
Q 4063 3044 3652 3512 
Q 3241 3981 2491 3981 
Q 1734 3981 1321 3518 
Q 909 3056 909 2222 
Q 909 1394 1326 908 
Q 1744 422 2484 422 
Q 3247 422 3655 892 
Q 4063 1363 4063 2222 
z
" transform="scale(0.015625)"/>
       </defs>
       <use xlink:href="#LiberationSans-44"/>
       <use xlink:href="#LiberationSans-61" x="72.216797"/>
       <use xlink:href="#LiberationSans-74" x="127.832031"/>
       <use xlink:href="#LiberationSans-61" x="155.615234"/>
       <use xlink:href="#LiberationSans-20" x="211.230469"/>
       <use xlink:href="#LiberationSans-45" x="239.013672"/>
       <use xlink:href="#LiberationSans-6e" x="305.712891"/>
       <use xlink:href="#LiberationSans-67" x="361.328125"/>
       <use xlink:href="#LiberationSans-69" x="416.943359"/>
       <use xlink:href="#LiberationSans-6e" x="439.160156"/>
       <use xlink:href="#LiberationSans-65" x="494.775391"/>
       <use xlink:href="#LiberationSans-65" x="550.390625"/>
       <use xlink:href="#LiberationSans-72" x="606.005859"/>
       <use xlink:href="#LiberationSans-69" x="639.306641"/>
       <use xlink:href="#LiberationSans-6e" x="661.523438"/>
       <use xlink:href="#LiberationSans-67" x="717.138672"/>
       <use xlink:href="#LiberationSans-20" x="772.753906"/>
       <use xlink:href="#LiberationSans-2f" x="800.537109"/>
       <use xlink:href="#LiberationSans-20" x="828.320312"/>
       <use xlink:href="#LiberationSans-4d" x="856.103516"/>
       <use xlink:href="#LiberationSans-4c" x="939.404297"/>
       <use xlink:href="#LiberationSans-20" x="991.269531"/>
       <use xlink:href="#LiberationSans-4f" x="1019.052734"/>
       <use xlink:href="#LiberationSans-70" x="1096.835938"/>
       <use xlink:href="#LiberationSans-73" x="1152.451172"/>
      </g>
     </g>
    </g>
    <g id="xtick_5">
     <g id="line2d_5">
      <path d="M 283.868906 255.55375 
L 69.110156 255.55375 
" clip-path="url(#p592f08936e)" style="fill: none; stroke: #ffffff; stroke-opacity: 0.7; stroke-width: 0.6; stroke-linecap: round"/>
     </g>
     <g id="text_5">
      <!-- Mathematical Modeling -->
      <g style="fill: #262626" transform="translate(7.2 258.139688) scale(0.1 -0.1)">
       <defs>
        <path id="LiberationSans-64" d="M 2566 544 
Q 2409 219 2151 78 
Q 1894 -63 1513 -63 
Q 872 -63 570 368 
Q 269 800 269 1675 
Q 269 3444 1513 3444 
Q 1897 3444 2153 3303 
Q 2409 3163 2566 2856 
L 2572 2856 
L 2566 3234 
L 2566 4638 
L 3128 4638 
L 3128 697 
Q 3128 169 3147 0 
L 2609 0 
Q 2600 50 2589 231 
Q 2578 413 2578 544 
L 2566 544 
z
M 859 1694 
Q 859 984 1046 678 
Q 1234 372 1656 372 
Q 2134 372 2350 703 
Q 2566 1034 2566 1731 
Q 2566 2403 2350 2715 
Q 2134 3028 1663 3028 
Q 1238 3028 1048 2714 
Q 859 2400 859 1694 
z
" transform="scale(0.015625)"/>
       </defs>
       <use xlink:href="#LiberationSans-4d"/>
       <use xlink:href="#LiberationSans-61" x="83.300781"/>
       <use xlink:href="#LiberationSans-74" x="138.916016"/>
       <use xlink:href="#LiberationSans-68" x="166.699219"/>
       <use xlink:href="#LiberationSans-65" x="222.314453"/>
       <use xlink:href="#LiberationSans-6d" x="277.929688"/>
       <use xlink:href="#LiberationSans-61" x="361.230469"/>
       <use xlink:href="#LiberationSans-74" x="416.845703"/>
       <use xlink:href="#LiberationSans-69" x="444.628906"/>
       <use xlink:href="#LiberationSans-63" x="466.845703"/>
       <use xlink:href="#LiberationSans-61" x="516.845703"/>
       <use xlink:href="#LiberationSans-6c" x="572.460938"/>
       <use xlink:href="#LiberationSans-20" x="594.677734"/>
       <use xlink:href="#LiberationSans-4d" x="622.460938"/>
       <use xlink:href="#LiberationSans-6f" x="705.761719"/>
       <use xlink:href="#LiberationSans-64" x="761.376953"/>
       <use xlink:href="#LiberationSans-65" x="816.992188"/>
       <use xlink:href="#LiberationSans-6c" x="872.607422"/>
       <use xlink:href="#LiberationSans-69" x="894.824219"/>
       <use xlink:href="#LiberationSans-6e" x="917.041016"/>
       <use xlink:href="#LiberationSans-67" x="972.65625"/>
      </g>
     </g>
    </g>
    <g id="xtick_6">
     <g id="line2d_6">
      <path d="M 283.868906 255.55375 
L 132.011538 407.411118 
" clip-path="url(#p592f08936e)" style="fill: none; stroke: #ffffff; stroke-opacity: 0.7; stroke-width: 0.6; stroke-linecap: round"/>
     </g>
     <g id="text_6">
      <!-- Quantitative Finance -->
      <g style="fill: #262626" transform="translate(78.730667 417.421677) scale(0.1 -0.1)">
       <defs>
        <path id="LiberationSans-51" d="M 4672 2222 
Q 4672 1291 4203 691 
Q 3734 91 2900 -19 
Q 3028 -413 3236 -588 
Q 3444 -763 3763 -763 
Q 3934 -763 4122 -722 
L 4122 -1141 
Q 3831 -1209 3566 -1209 
Q 3094 -1209 2789 -942 
Q 2484 -675 2291 -50 
Q 1672 -19 1223 264 
Q 775 547 539 1051 
Q 303 1556 303 2222 
Q 303 3278 881 3873 
Q 1459 4469 2491 4469 
Q 3163 4469 3656 4201 
Q 4150 3934 4411 3425 
Q 4672 2916 4672 2222 
z
M 4063 2222 
Q 4063 3044 3652 3512 
Q 3241 3981 2491 3981 
Q 1734 3981 1321 3518 
Q 909 3056 909 2222 
Q 909 1394 1326 908 
Q 1744 422 2484 422 
Q 3247 422 3655 892 
Q 4063 1363 4063 2222 
z
" transform="scale(0.015625)"/>
        <path id="LiberationSans-46" d="M 1122 3916 
L 1122 2278 
L 3578 2278 
L 3578 1784 
L 1122 1784 
L 1122 0 
L 525 0 
L 525 4403 
L 3653 4403 
L 3653 3916 
L 1122 3916 
z
" transform="scale(0.015625)"/>
       </defs>
       <use xlink:href="#LiberationSans-51"/>
       <use xlink:href="#LiberationSans-75" x="77.783203"/>
       <use xlink:href="#LiberationSans-61" x="133.398438"/>
       <use xlink:href="#LiberationSans-6e" x="189.013672"/>
       <use xlink:href="#LiberationSans-74" x="244.628906"/>
       <use xlink:href="#LiberationSans-69" x="272.412109"/>
       <use xlink:href="#LiberationSans-74" x="294.628906"/>
       <use xlink:href="#LiberationSans-61" x="322.412109"/>
       <use xlink:href="#LiberationSans-74" x="378.027344"/>
       <use xlink:href="#LiberationSans-69" x="405.810547"/>
       <use xlink:href="#LiberationSans-76" x="428.027344"/>
       <use xlink:href="#LiberationSans-65" x="478.027344"/>
       <use xlink:href="#LiberationSans-20" x="533.642578"/>
       <use xlink:href="#LiberationSans-46" x="561.425781"/>
       <use xlink:href="#LiberationSans-69" x="622.509766"/>
       <use xlink:href="#LiberationSans-6e" x="644.726562"/>
       <use xlink:href="#LiberationSans-61" x="700.341797"/>
       <use xlink:href="#LiberationSans-6e" x="755.957031"/>
       <use xlink:href="#LiberationSans-63" x="811.572266"/>
       <use xlink:href="#LiberationSans-65" x="861.572266"/>
      </g>
     </g>
    </g>
    <g id="xtick_7">
     <g id="line2d_7">
      <path d="M 283.868906 255.55375 
L 283.868906 470.3125 
" clip-path="url(#p592f08936e)" style="fill: none; stroke: #ffffff; stroke-opacity: 0.7; stroke-width: 0.6; stroke-linecap: round"/>
     </g>
     <g id="text_7">
      <!-- Web/API Systems -->
      <g style="fill: #262626" transform="translate(243.668906 483.398438) scale(0.1 -0.1)">
       <defs>
        <path id="LiberationSans-57" d="M 4722 0 
L 4009 0 
L 3247 2797 
Q 3172 3059 3028 3738 
Q 2947 3375 2890 3131 
Q 2834 2888 2038 0 
L 1325 0 
L 28 4403 
L 650 4403 
L 1441 1606 
Q 1581 1081 1700 525 
Q 1775 869 1873 1275 
Q 1972 1681 2741 4403 
L 3313 4403 
L 4078 1663 
Q 4253 991 4353 525 
L 4381 634 
Q 4466 994 4519 1220 
Q 4572 1447 5397 4403 
L 6019 4403 
L 4722 0 
z
" transform="scale(0.015625)"/>
        <path id="LiberationSans-62" d="M 3291 1706 
Q 3291 -63 2047 -63 
Q 1663 -63 1408 76 
Q 1153 216 994 525 
L 988 525 
Q 988 428 975 229 
Q 963 31 956 0 
L 413 0 
Q 431 169 431 697 
L 431 4638 
L 994 4638 
L 994 3316 
Q 994 3113 981 2838 
L 994 2838 
Q 1150 3163 1408 3303 
Q 1666 3444 2047 3444 
Q 2688 3444 2989 3012 
Q 3291 2581 3291 1706 
z
M 2700 1688 
Q 2700 2397 2512 2703 
Q 2325 3009 1903 3009 
Q 1428 3009 1211 2684 
Q 994 2359 994 1653 
Q 994 988 1206 670 
Q 1419 353 1897 353 
Q 2322 353 2511 667 
Q 2700 981 2700 1688 
z
" transform="scale(0.015625)"/>
        <path id="LiberationSans-41" d="M 3647 0 
L 3144 1288 
L 1138 1288 
L 631 0 
L 13 0 
L 1809 4403 
L 2488 4403 
L 4256 0 
L 3647 0 
z
M 2141 3953 
L 2113 3866 
Q 2034 3606 1881 3200 
L 1319 1753 
L 2966 1753 
L 2400 3206 
Q 2313 3422 2225 3694 
L 2141 3953 
z
" transform="scale(0.015625)"/>
        <path id="LiberationSans-49" d="M 591 0 
L 591 4403 
L 1188 4403 
L 1188 0 
L 591 0 
z
" transform="scale(0.015625)"/>
       </defs>
       <use xlink:href="#LiberationSans-57"/>
       <use xlink:href="#LiberationSans-65" x="92.634766"/>
       <use xlink:href="#LiberationSans-62" x="148.25"/>
       <use xlink:href="#LiberationSans-2f" x="203.865234"/>
       <use xlink:href="#LiberationSans-41" x="231.648438"/>
       <use xlink:href="#LiberationSans-50" x="298.347656"/>
       <use xlink:href="#LiberationSans-49" x="365.046875"/>
       <use xlink:href="#LiberationSans-20" x="392.830078"/>
       <use xlink:href="#LiberationSans-53" x="420.613281"/>
       <use xlink:href="#LiberationSans-79" x="487.3125"/>
       <use xlink:href="#LiberationSans-73" x="537.3125"/>
       <use xlink:href="#LiberationSans-74" x="587.3125"/>
       <use xlink:href="#LiberationSans-65" x="615.095703"/>
       <use xlink:href="#LiberationSans-6d" x="670.710938"/>
       <use xlink:href="#LiberationSans-73" x="754.011719"/>
      </g>
     </g>
    </g>
    <g id="xtick_8">
     <g id="line2d_8">
      <path d="M 283.868906 255.55375 
L 435.726275 407.411118 
" clip-path="url(#p592f08936e)" style="fill: none; stroke: #ffffff; stroke-opacity: 0.7; stroke-width: 0.6; stroke-linecap: round"/>
     </g>
     <g id="text_8">
      <!-- Visualization &amp; Reporting -->
      <g style="fill: #262626" transform="translate(387.376677 417.421677) scale(0.1 -0.1)">
       <defs>
        <path id="LiberationSans-56" d="M 2444 0 
L 1825 0 
L 28 4403 
L 656 4403 
L 1875 1303 
L 2138 525 
L 2400 1303 
L 3613 4403 
L 4241 4403 
L 2444 0 
z
" transform="scale(0.015625)"/>
        <path id="LiberationSans-7a" d="M 259 0 
L 259 428 
L 2150 2947 
L 366 2947 
L 366 3381 
L 2816 3381 
L 2816 2953 
L 922 434 
L 2881 434 
L 2881 0 
L 259 0 
z
" transform="scale(0.015625)"/>
        <path id="LiberationSans-52" d="M 3638 0 
L 2494 1828 
L 1122 1828 
L 1122 0 
L 525 0 
L 525 4403 
L 2597 4403 
Q 3341 4403 3745 4070 
Q 4150 3738 4150 3144 
Q 4150 2653 3864 2318 
Q 3578 1984 3075 1897 
L 4325 0 
L 3638 0 
z
M 3550 3138 
Q 3550 3522 3289 3723 
Q 3028 3925 2538 3925 
L 1122 3925 
L 1122 2300 
L 2563 2300 
Q 3034 2300 3292 2520 
Q 3550 2741 3550 3138 
z
" transform="scale(0.015625)"/>
       </defs>
       <use xlink:href="#LiberationSans-56"/>
       <use xlink:href="#LiberationSans-69" x="64.949219"/>
       <use xlink:href="#LiberationSans-73" x="87.166016"/>
       <use xlink:href="#LiberationSans-75" x="137.166016"/>
       <use xlink:href="#LiberationSans-61" x="192.78125"/>
       <use xlink:href="#LiberationSans-6c" x="248.396484"/>
       <use xlink:href="#LiberationSans-69" x="270.613281"/>
       <use xlink:href="#LiberationSans-7a" x="292.830078"/>
       <use xlink:href="#LiberationSans-61" x="342.830078"/>
       <use xlink:href="#LiberationSans-74" x="398.445312"/>
       <use xlink:href="#LiberationSans-69" x="426.228516"/>
       <use xlink:href="#LiberationSans-6f" x="448.445312"/>
       <use xlink:href="#LiberationSans-6e" x="504.060547"/>
       <use xlink:href="#LiberationSans-20" x="559.675781"/>
       <use xlink:href="#LiberationSans-26" x="587.458984"/>
       <use xlink:href="#LiberationSans-20" x="654.158203"/>
       <use xlink:href="#LiberationSans-52" x="681.941406"/>
       <use xlink:href="#LiberationSans-65" x="754.158203"/>
       <use xlink:href="#LiberationSans-70" x="809.773438"/>
       <use xlink:href="#LiberationSans-6f" x="865.388672"/>
       <use xlink:href="#LiberationSans-72" x="921.003906"/>
       <use xlink:href="#LiberationSans-74" x="954.304688"/>
       <use xlink:href="#LiberationSans-69" x="982.087891"/>
       <use xlink:href="#LiberationSans-6e" x="1004.304688"/>
       <use xlink:href="#LiberationSans-67" x="1059.919922"/>
      </g>
     </g>
    </g>
   </g>
   <g id="matplotlib.axis_2">
    <g id="ytick_1">
     <g id="line2d_9">
      <path d="M 326.290388 255.55375 
C 326.290388 249.983012 325.193074 244.466443 323.061245 239.319752 
C 320.929416 234.173061 317.80453 229.496339 313.865423 225.557233 
C 309.926317 221.618126 305.249595 218.493241 300.102904 216.361412 
C 294.956214 214.229582 289.439644 213.132269 283.868906 213.132269 
C 278.298168 213.132269 272.781599 214.229582 267.634908 216.361412 
C 262.488217 218.493241 257.811496 221.618126 253.872389 225.557233 
C 249.933282 229.496339 246.808397 234.173061 244.676568 239.319752 
C 242.544739 244.466443 241.447425 249.983012 241.447425 255.55375 
C 241.447425 261.124488 242.544739 266.641057 244.676568 271.787748 
C 246.808397 276.934439 249.933282 281.611161 253.872389 285.550267 
C 257.811496 289.489374 262.488217 292.614259 267.634908 294.746088 
C 272.781599 296.877918 278.298168 297.975231 283.868906 297.975231 
C 289.439644 297.975231 294.956214 296.877918 300.102904 294.746088 
C 305.249595 292.614259 309.926317 289.489374 313.865423 285.550267 
C 317.80453 281.611161 320.929416 276.934439 323.061245 271.787748 
C 325.193074 266.641057 326.290388 261.124488 326.290388 255.55375 
" clip-path="url(#p592f08936e)" style="fill: none; stroke: #ffffff; stroke-opacity: 0.7; stroke-width: 0.6; stroke-linecap: round"/>
     </g>
    </g>
    <g id="ytick_2">
     <g id="line2d_10">
      <path d="M 368.711869 255.55375 
C 368.711869 244.412274 366.517241 233.379135 362.253583 223.085754 
C 357.989925 212.792372 351.740154 203.438929 343.861941 195.560716 
C 335.983728 187.682502 326.630284 181.432731 316.336903 177.169073 
C 306.043521 172.905415 295.010382 170.710787 283.868906 170.710787 
C 272.72743 170.710787 261.694291 172.905415 251.40091 177.169073 
C 241.107529 181.432731 231.754085 187.682502 223.875872 195.560716 
C 215.997659 203.438929 209.747887 212.792372 205.484229 223.085754 
C 201.220571 233.379135 199.025943 244.412274 199.025943 255.55375 
C 199.025943 266.695226 201.220571 277.728365 205.484229 288.021746 
C 209.747887 298.315128 215.997659 307.668571 223.875872 315.546784 
C 231.754085 323.424998 241.107529 329.674769 251.40091 333.938427 
C 261.694291 338.202085 272.72743 340.396713 283.868906 340.396713 
C 295.010382 340.396713 306.043521 338.202085 316.336903 333.938427 
C 326.630284 329.674769 335.983728 323.424998 343.861941 315.546784 
C 351.740154 307.668571 357.989925 298.315128 362.253583 288.021746 
C 366.517241 277.728365 368.711869 266.695226 368.711869 255.55375 
" clip-path="url(#p592f08936e)" style="fill: none; stroke: #ffffff; stroke-opacity: 0.7; stroke-width: 0.6; stroke-linecap: round"/>
     </g>
    </g>
    <g id="ytick_3">
     <g id="line2d_11">
      <path d="M 411.133351 255.55375 
C 411.133351 238.841536 407.841409 222.291828 401.445922 206.851756 
C 395.050434 191.411683 385.675778 177.381518 373.858458 165.564198 
C 362.041138 153.746879 348.010973 144.372222 332.570901 137.976735 
C 317.130828 131.581247 300.58112 128.289306 283.868906 128.289306 
C 267.156693 128.289306 250.606984 131.581247 235.166912 137.976735 
C 219.72684 144.372222 205.696674 153.746879 193.879355 165.564198 
C 182.062035 177.381518 172.687378 191.411683 166.291891 206.851756 
C 159.896404 222.291828 156.604462 238.841536 156.604462 255.55375 
C 156.604462 272.265964 159.896404 288.815672 166.291891 304.255744 
C 172.687378 319.695817 182.062035 333.725982 193.879355 345.543302 
C 205.696674 357.360621 219.72684 366.735278 235.166912 373.130765 
C 250.606984 379.526253 267.156693 382.818194 283.868906 382.818194 
C 300.58112 382.818194 317.130828 379.526253 332.570901 373.130765 
C 348.010973 366.735278 362.041138 357.360621 373.858458 345.543302 
C 385.675778 333.725982 395.050434 319.695817 401.445922 304.255744 
C 407.841409 288.815672 411.133351 272.265964 411.133351 255.55375 
" clip-path="url(#p592f08936e)" style="fill: none; stroke: #ffffff; stroke-opacity: 0.7; stroke-width: 0.6; stroke-linecap: round"/>
     </g>
    </g>
    <g id="ytick_4">
     <g id="line2d_12">
      <path d="M 453.554832 255.55375 
C 453.554832 233.270798 449.165577 211.20452 440.63826 190.617757 
C 432.110944 170.030995 419.611401 151.324107 403.854975 135.567681 
C 388.098549 119.811255 369.391662 107.311712 348.804899 98.784396 
C 328.218136 90.25708 306.151858 85.867824 283.868906 85.867824 
C 261.585955 85.867824 239.519677 90.25708 218.932914 98.784396 
C 198.346151 107.311712 179.639264 119.811255 163.882837 135.567681 
C 148.126411 151.324107 135.626869 170.030995 127.099552 190.617757 
C 118.572236 211.20452 114.18298 233.270798 114.18298 255.55375 
C 114.18298 277.836702 118.572236 299.90298 127.099552 320.489743 
C 135.626869 341.076505 148.126411 359.783393 163.882837 375.539819 
C 179.639264 391.296245 198.346151 403.795788 218.932914 412.323104 
C 239.519677 420.85042 261.585955 425.239676 283.868906 425.239676 
C 306.151858 425.239676 328.218136 420.85042 348.804899 412.323104 
C 369.391662 403.795788 388.098549 391.296245 403.854975 375.539819 
C 419.611401 359.783393 432.110944 341.076505 440.63826 320.489743 
C 449.165577 299.90298 453.554832 277.836702 453.554832 255.55375 
" clip-path="url(#p592f08936e)" style="fill: none; stroke: #ffffff; stroke-opacity: 0.7; stroke-width: 0.6; stroke-linecap: round"/>
     </g>
    </g>
    <g id="ytick_5">
     <g id="line2d_13">
      <path d="M 495.976314 255.55375 
C 495.976314 227.70006 490.489744 200.117213 479.830599 174.383759 
C 469.171453 148.650306 453.547025 125.266697 433.851492 105.571164 
C 414.15596 85.875631 390.772351 70.251203 365.038897 59.592058 
C 339.305443 48.932912 311.722596 43.446343 283.868906 43.446343 
C 256.015217 43.446343 228.432369 48.932912 202.698916 59.592058 
C 176.965462 70.251203 153.581853 85.875631 133.88632 105.571164 
C 114.190787 125.266697 98.566359 148.650306 87.907214 174.383759 
C 77.248068 200.117213 71.761499 227.70006 71.761499 255.55375 
C 71.761499 283.40744 77.248068 310.990287 87.907214 336.723741 
C 98.566359 362.457194 114.190787 385.840803 133.88632 405.536336 
C 153.581853 425.231869 176.965462 440.856297 202.698916 451.515442 
C 228.432369 462.174588 256.015217 467.661157 283.868906 467.661157 
C 311.722596 467.661157 339.305443 462.174588 365.038897 451.515442 
C 390.772351 440.856297 414.15596 425.231869 433.851492 405.536336 
C 453.547025 385.840803 469.171453 362.457194 479.830599 336.723741 
C 490.489744 310.990287 495.976314 283.40744 495.976314 255.55375 
" clip-path="url(#p592f08936e)" style="fill: none; stroke: #ffffff; stroke-opacity: 0.7; stroke-width: 0.6; stroke-linecap: round"/>
     </g>
    </g>
   </g>
   <g id="patch_3">
    <path d="M 495.976314 255.55375 
L 426.352363 113.070293 
L 283.868906 54.051713 
L 156.383708 128.068552 
L 103.57761 255.55375 
L 163.882837 375.539819 
L 283.868906 414.634306 
L 403.854975 375.539819 
z
" clip-path="url(#p592f08936e)" style="fill: #e69f00; opacity: 0.2"/>
   </g>
   <g id="line2d_14">
    <path d="M 495.976314 255.55375 
L 426.352363 113.070293 
L 283.868906 54.051713 
L 156.383708 128.068552 
L 103.57761 255.55375 
L 163.882837 375.539819 
L 283.868906 414.634306 
L 403.854975 375.539819 
L 495.976314 255.55375 
" clip-path="url(#p592f08936e)" style="fill: none; stroke: #e69f00; stroke-width: 2; stroke-linecap: round"/>
   </g>
   <g id="patch_4">
    <path d="M 498.627656 255.55375 
C 498.627656 227.351889 493.072505 199.424256 482.28012 173.369134 
C 471.487735 147.314013 455.668002 123.638108 435.726275 103.696382 
C 415.784548 83.754655 392.108644 67.934921 366.053522 57.142536 
C 339.9984 46.350152 312.070767 40.795 283.868906 40.795 
C 255.667046 40.795 227.739413 46.350152 201.684291 57.142536 
C 175.629169 67.934921 151.953265 83.754655 132.011538 103.696382 
C 112.069811 123.638108 96.250078 147.314013 85.457693 173.369134 
C 74.665308 199.424256 69.110156 227.351889 69.110156 255.55375 
C 69.110156 283.755611 74.665308 311.683244 85.457693 337.738366 
C 96.250078 363.793487 112.069811 387.469392 132.011538 407.411118 
C 151.953265 427.352845 175.629169 443.172579 201.684291 453.964964 
C 227.739413 464.757348 255.667046 470.3125 283.868906 470.3125 
C 312.070767 470.3125 339.9984 464.757348 366.053522 453.964964 
C 392.108644 443.172579 415.784548 427.352845 435.726275 407.411118 
C 455.668002 387.469392 471.487735 363.793487 482.28012 337.738366 
C 493.072505 311.683244 498.627656 283.755611 498.627656 255.55375 
" style="fill: none"/>
   </g>
   <g id="text_9">
    <!-- Kevin Song – Developer Skill Radar -->
    <g style="fill: #262626" transform="translate(156.695156 18.795) scale(0.16 -0.16)">
     <defs>
      <path id="LiberationSans-4b" d="M 3456 0 
L 1697 2125 
L 1122 1688 
L 1122 0 
L 525 0 
L 525 4403 
L 1122 4403 
L 1122 2197 
L 3244 4403 
L 3947 4403 
L 2072 2491 
L 4197 0 
L 3456 0 
z
" transform="scale(0.015625)"/>
      <path id="LiberationSans-2013" d="M 0 1409 
L 0 1838 
L 3556 1838 
L 3556 1409 
L 0 1409 
z
" transform="scale(0.015625)"/>
     </defs>
     <use xlink:href="#LiberationSans-4b"/>
     <use xlink:href="#LiberationSans-65" x="66.699219"/>
     <use xlink:href="#LiberationSans-76" x="122.314453"/>
     <use xlink:href="#LiberationSans-69" x="172.314453"/>
     <use xlink:href="#LiberationSans-6e" x="194.53125"/>
     <use xlink:href="#LiberationSans-20" x="250.146484"/>
     <use xlink:href="#LiberationSans-53" x="277.929688"/>
     <use xlink:href="#LiberationSans-6f" x="344.628906"/>
     <use xlink:href="#LiberationSans-6e" x="400.244141"/>
     <use xlink:href="#LiberationSans-67" x="455.859375"/>
     <use xlink:href="#LiberationSans-20" x="511.474609"/>
     <use xlink:href="#LiberationSans-2013" x="539.257812"/>
     <use xlink:href="#LiberationSans-20" x="594.873047"/>
     <use xlink:href="#LiberationSans-44" x="622.65625"/>
     <use xlink:href="#LiberationSans-65" x="694.873047"/>
     <use xlink:href="#LiberationSans-76" x="750.488281"/>
     <use xlink:href="#LiberationSans-65" x="800.488281"/>
     <use xlink:href="#LiberationSans-6c" x="856.103516"/>
     <use xlink:href="#LiberationSans-6f" x="878.320312"/>
     <use xlink:href="#LiberationSans-70" x="933.935547"/>
     <use xlink:href="#LiberationSans-65" x="989.550781"/>
     <use xlink:href="#LiberationSans-72" x="1045.166016"/>
     <use xlink:href="#LiberationSans-20" x="1078.466797"/>
     <use xlink:href="#LiberationSans-53" x="1106.25"/>
     <use xlink:href="#LiberationSans-6b" x="1172.949219"/>
     <use xlink:href="#LiberationSans-69" x="1222.949219"/>
     <use xlink:href="#LiberationSans-6c" x="1245.166016"/>
     <use xlink:href="#LiberationSans-6c" x="1267.382812"/>
     <use xlink:href="#LiberationSans-20" x="1289.599609"/>
     <use xlink:href="#LiberationSans-52" x="1317.382812"/>
     <use xlink:href="#LiberationSans-61" x="1389.599609"/>
     <use xlink:href="#LiberationSans-64" x="1445.214844"/>
     <use xlink:href="#LiberationSans-61" x="1500.830078"/>
     <use xlink:href="#LiberationSans-72" x="1556.445312"/>
    </g>
   </g>
  </g>
 </g>
 <defs>
  <clipPath id="p592f08936e">
   <path d="M 498.627656 255.55375 
C 498.627656 227.351889 493.072505 199.424256 482.28012 173.369134 
C 471.487735 147.314013 455.668002 123.638108 435.726275 103.696382 
C 415.784548 83.754655 392.108644 67.934921 366.053522 57.142536 
C 339.9984 46.350152 312.070767 40.795 283.868906 40.795 
C 255.667046 40.795 227.739413 46.350152 201.684291 57.142536 
C 175.629169 67.934921 151.953265 83.754655 132.011538 103.696382 
C 112.069811 123.638108 96.250078 147.314013 85.457693 173.369134 
C 74.665308 199.424256 69.110156 227.351889 69.110156 255.55375 
C 69.110156 283.755611 74.665308 311.683244 85.457693 337.738366 
C 96.250078 363.793487 112.069811 387.469392 132.011538 407.411118 
C 151.953265 427.352845 175.629169 443.172579 201.684291 453.964964 
C 227.739413 464.757348 255.667046 470.3125 283.868906 470.3125 
C 312.070767 470.3125 339.9984 464.757348 366.053522 453.964964 
C 392.108644 443.172579 415.784548 427.352845 435.726275 407.411118 
C 455.668002 387.469392 471.487735 363.793487 482.28012 337.738366 
C 493.072505 311.683244 498.627656 283.755611 498.627656 255.55375 
M 283.868906 255.55375 
C 283.868906 255.55375 283.868906 255.55375 283.868906 255.55375 
C 283.868906 255.55375 283.868906 255.55375 283.868906 255.55375 
C 283.868906 255.55375 283.868906 255.55375 283.868906 255.55375 
C 283.868906 255.55375 283.868906 255.55375 283.868906 255.55375 
C 283.868906 255.55375 283.868906 255.55375 283.868906 255.55375 
C 283.868906 255.55375 283.868906 255.55375 283.868906 255.55375 
C 283.868906 255.55375 283.868906 255.55375 283.868906 255.55375 
C 283.868906 255.55375 283.868906 255.55375 283.868906 255.55375 
C 283.868906 255.55375 283.868906 255.55375 283.868906 255.55375 
C 283.868906 255.55375 283.868906 255.55375 283.868906 255.55375 
C 283.868906 255.55375 283.868906 255.55375 283.868906 255.55375 
C 283.868906 255.55375 283.868906 255.55375 283.868906 255.55375 
C 283.868906 255.55375 283.868906 255.55375 283.868906 255.55375 
C 283.868906 255.55375 283.868906 255.55375 283.868906 255.55375 
C 283.868906 255.55375 283.868906 255.55375 283.868906 255.55375 
C 283.868906 255.55375 283.868906 255.55375 283.868906 255.55375 
M 498.627656 255.55375 
z
"/>
  </clipPath>
 </defs>
</svg>
